<svg width="3644" height="3959" viewBox="0 0 3644 3959" fill="none" xmlns="http://www.w3.org/2000/svg">
<path d="M3643.64 1505.17V3306.7L2852.09 2676.55V1191.07L1917.5 463.305C1827.02 389.224 1788.86 404.094 1728.07 463.305L796.381 1191.07V2676.55L10.6313 3287.37L0 1587.32C18.7088 1356.11 105.048 1249.42 337.302 1082.82L1488.38 175.294C1731.1 -40.7933 1880.16 -86.9365 2211.31 208.154L3329.53 1082.82C3539.28 1246.58 3611.06 1339.01 3643.64 1505.17Z" fill="#016368"/>
<path d="M1929.1 1942.99C1884.6 1919.93 1867.12 1927.84 1836.32 1942.99V2905.61L3133.34 3901.08C3417.85 3981.05 3544.1 3958.91 3643.64 3666.23V3306.7L1929.1 1942.99Z" fill="url(#paint0_linear_26_12)"/>
<path d="M1645.92 2019.34L10.6309 3287.37V3740.65C183.876 3963.56 291.587 4063.62 669.772 3803.47C1118.08 3436.35 1364.9 3220.23 1836.32 2905.61V1942.99C1745.17 1948.62 1708.07 1971.95 1645.92 2019.34Z" fill="url(#paint1_linear_26_12)"/>
<rect x="1525.11" y="1115.68" width="284.146" height="255.151" rx="17" fill="#016368"/>
<rect x="1844.05" y="1115.68" width="284.146" height="255.151" rx="17" fill="#016368"/>
<rect x="1844.05" y="1419.16" width="284.146" height="255.151" rx="17" fill="#016368"/>
<rect x="1525.11" y="1419.16" width="284.146" height="255.151" rx="17" fill="#016368"/>
<defs>
<linearGradient id="paint0_linear_26_12" x1="2739.98" y1="1928.51" x2="2739.98" y2="3941" gradientUnits="userSpaceOnUse">
<stop stop-color="#009B9F"/>
<stop offset="1" stop-color="#003839"/>
</linearGradient>
<linearGradient id="paint1_linear_26_12" x1="923.474" y1="1942.99" x2="923.474" y2="3958.22" gradientUnits="userSpaceOnUse">
<stop stop-color="#009B9F"/>
<stop offset="1" stop-color="#277F81"/>
</linearGradient>
</defs>
</svg>
